<?xml version="1.0" standalone="no"?>
<!DOCTYPE svg PUBLIC "-//W3C//DTD SVG 20010904//EN" "http://www.w3.org/TR/2001/REC-SVG-20010904/DTD/svg10.dtd">
<svg xmlns="http://www.w3.org/2000/svg" version="1.0" width="1080.000000pt" height="1042.000000pt" viewBox="0 0 1080.000000 1042.000000" preserveAspectRatio="xMidYMid meet">
<metadata>
Created by potrace 1.16, written by Peter Selinger 2001-2019
<meta name="Producer" content="Online-Convert"/></metadata>
<g transform="translate(0.000000,1042.000000) scale(0.100000,-0.100000)" fill="#000000" stroke="none">
<path d="M5075 9890 c-4 -11 -24 -29 -45 -40 -45 -23 -87 -78 -165 -220 -156 -281 -350 -526 -646 -815 -265 -258 -452 -397 -844 -625 -141 -82 -293 -175 -338 -206 -234 -163 -460 -395 -627 -644 -33 -49 -60 -92 -60 -96 0 -3 -8 -18 -19 -32 -28 -40 -144 -274 -186 -377 -97 -234 -178 -544 -215 -820 -18 -130 -19 -540 -1 -655 17 -109 59 -328 70 -360 5 -14 14 -45 21 -70 21 -77 81 -253 101 -298 11 -24 27 -62 36 -85 26 -68 36 -75 47 -36 17 64 11 126 -17 166 -34 51 -112 288 -142 433 -4 19 -11 53 -16 75 -41 184 -59 526 -39 720 10 105 31 239 60 395 35 187 161 536 263 730 235 450 519 753 932 995 442 260 481 284 640 404 372 278 800 740 983 1061 11 19 45 80 76 135 72 126 87 143 126 137 25 -4 32 1 51 32 l21 36 319 0 319 0 14 -35 c14 -32 19 -35 56 -35 38 0 42 -3 75 -55 19 -30 35 -56 35 -59 0 -11 125 -215 188 -306 117 -171 254 -332 437 -516 320 -320 502 -459 936 -710 369 -213 500 -312 698 -528 199 -216 375 -497 485 -776 21 -52 42 -104 46 -115 14 -31 67 -202 85 -275 29 -117 33 -134 44 -190 34 -172 61 -416 61 -546 0 -141 -38 -455 -71 -579 -6 -22 -14 -58 -19 -80 -5 -22 -21 -78 -35 -125 -15 -47 -29 -94 -33 -105 -3 -11 -11 -31 -19 -45 -7 -14 -13 -31 -13 -37 0 -7 -4 -13 -9 -13 -12 0 -28 -47 -34 -97 -4 -33 0 -49 16 -69 l20 -26 37 88 c38 92 97 257 111 309 4 17 14 55 22 85 24 92 45 191 56 265 6 39 15 100 21 136 13 85 13 513 0 598 -6 36 -15 98 -21 136 -10 71 -29 166 -54 265 -128 519 -371 972 -698 1303 -203 206 -292 272 -592 447 -496 288 -664 413 -975 722 -221 220 -389 425 -518 631 -42 66 -50 80 -106 182 -54 97 -95 149 -133 170 -21 12 -42 31 -48 43 l-10 22 -377 0 c-369 0 -377 0 -383 -20z"/>
<path d="M5161 9601 l-55 -6 -13 -53 c-8 -33 -29 -73 -53 -104 -22 -27 -61 -89 -86 -136 -75 -140 -256 -419 -293 -452 -4 -3 -38 -43 -77 -90 -197 -236 -498 -509 -735 -668 -80 -54 -257 -162 -264 -162 -13 0 -332 -197 -393 -243 -387 -288 -674 -705 -844 -1222 -52 -159 -99 -373 -123 -558 -15 -120 -20 -405 -9 -514 l7 -60 33 37 c45 50 59 87 39 106 -46 46 8 570 86 839 20 70 79 249 88 270 5 11 18 40 28 65 79 198 236 462 368 618 193 230 364 367 690 552 282 160 453 276 635 433 353 305 605 607 808 972 40 72 88 148 107 169 31 36 42 56 59 109 5 16 28 17 295 17 l290 0 11 -41 c6 -22 26 -57 43 -77 30 -34 87 -116 87 -126 0 -10 148 -258 188 -316 248 -353 650 -745 987 -963 66 -42 245 -149 345 -205 112 -63 204 -123 326 -213 61 -45 250 -230 316 -309 311 -375 515 -892 573 -1452 10 -90 7 -309 -4 -322 -25 -30 43 -156 70 -129 17 17 24 326 10 454 -14 126 -36 273 -51 334 -5 22 -17 72 -26 110 -19 84 -72 254 -109 350 -24 64 -39 98 -106 240 -83 178 -253 424 -405 584 -165 175 -305 278 -629 466 -372 215 -547 347 -816 615 -181 180 -201 202 -305 335 -105 134 -160 216 -230 339 -68 120 -141 236 -174 277 -12 14 -24 47 -28 74 -6 43 -11 50 -36 56 -33 9 -544 9 -625 0z"/>
<path d="M5317 8232 c-20 -21 -27 -38 -27 -68 0 -21 -4 -44 -8 -50 -4 -7 -75 -16 -177 -23 -213 -15 -277 -26 -273 -49 2 -9 12 -18 23 -20 55 -11 62 -67 13 -106 l-32 -25 24 -70 c25 -75 37 -88 67 -66 15 12 16 17 5 32 -6 10 -17 29 -23 43 -9 22 -7 28 17 47 30 24 44 17 44 -23 0 -35 38 -67 72 -60 24 5 30 2 38 -19 10 -26 17 -29 44 -19 14 5 16 28 16 144 0 141 6 164 36 139 13 -11 15 -36 13 -143 l-3 -131 29 0 29 0 -3 136 c-2 120 -1 137 14 143 32 12 36 -5 34 -143 l-2 -136 30 -3 31 -3 0 134 c0 74 3 140 6 146 12 20 30 11 54 -25 26 -42 27 -48 6 -69 -21 -21 -30 -96 -14 -124 18 -36 62 -25 76 19 19 56 33 48 36 -22 3 -62 3 -63 32 -63 l28 0 -1 137 c-1 75 2 139 7 142 5 3 22 2 38 -3 24 -6 29 -13 32 -44 2 -25 -3 -45 -19 -66 -38 -52 -14 -151 38 -151 15 0 43 51 43 80 0 11 4 20 9 20 14 0 23 -34 21 -78 -3 -59 -2 -62 28 -62 l28 0 -4 125 c-5 135 3 164 38 145 17 -9 18 -24 17 -147 l-2 -138 30 -3 30 -3 0 138 0 138 50 -3 c103 -7 158 -57 62 -57 -58 0 -76 -21 -77 -88 0 -83 53 -133 93 -89 25 28 22 54 -5 50 -19 -2 -24 2 -26 26 -4 36 10 50 43 42 26 -7 26 -7 22 -97 -3 -78 -1 -92 14 -100 44 -23 46 -16 41 121 -4 106 -2 134 11 153 8 13 12 29 8 36 -13 21 -204 60 -468 96 -175 24 -163 28 -163 -56 0 -52 -3 -70 -12 -67 -8 3 -16 35 -20 84 -9 102 -21 147 -50 189 -30 45 -72 48 -111 7z"/>
<path d="M4415 7975 c-5 -1 -30 -8 -55 -15 -77 -22 -253 -80 -285 -95 -16 -7 -53 -23 -81 -34 -64 -25 -138 -57 -184 -81 -171 -87 -456 -261 -605 -369 -46 -34 -53 -66 -15 -66 39 0 39 -50 0 -100 -19 -24 -28 -45 -24 -54 3 -9 12 -29 18 -46 22 -60 46 -64 72 -13 14 28 14 30 -5 35 -28 7 -34 31 -14 64 22 37 30 36 51 -1 20 -35 31 -37 65 -10 22 17 26 18 31 4 5 -13 9 -13 36 2 l29 18 3 146 c3 137 4 145 23 145 19 0 20 -7 20 -128 0 -70 4 -127 8 -127 5 0 17 5 28 10 17 10 19 23 19 150 0 156 -1 154 81 195 60 31 71 31 67 3 -2 -18 -9 -22 -28 -20 -20 2 -31 -6 -53 -40 -22 -34 -27 -53 -27 -104 0 -71 16 -94 53 -77 12 5 38 8 58 5 24 -2 40 1 45 10 5 7 7 68 5 134 -1 67 0 132 4 144 5 15 31 33 82 56 41 19 78 34 84 34 5 0 9 -11 9 -25 0 -22 -4 -25 -38 -25 -62 0 -94 -49 -96 -145 -1 -69 17 -115 46 -115 27 0 32 25 14 69 -11 28 -13 52 -8 82 8 49 28 61 41 27 6 -12 10 -17 10 -10 1 6 8 12 16 12 12 0 15 -14 15 -70 0 -72 5 -79 41 -60 17 10 19 23 19 149 0 154 0 154 69 170 24 5 48 14 54 20 23 23 34 10 40 -47 10 -91 -9 -133 -35 -76 -10 20 -9 30 5 53 18 32 14 41 -19 41 -28 0 -59 -49 -68 -108 -7 -49 9 -121 27 -123 24 -3 42 3 58 17 20 18 29 18 29 0 0 -22 13 -26 40 -13 24 12 24 14 21 139 -1 74 2 134 8 145 13 25 137 61 153 45 16 -16 1 -42 -24 -42 -52 0 -98 -62 -98 -132 0 -40 24 -78 50 -78 24 0 64 64 55 88 -6 16 -7 16 -16 0 -16 -29 -29 -21 -29 17 0 24 6 37 21 45 40 22 49 7 49 -85 0 -47 2 -85 4 -85 3 0 16 4 30 10 l25 9 0 142 c1 87 5 147 12 155 19 23 -2 40 -36 29z"/>
<path d="M6547 7843 c-14 -14 -6 -34 18 -43 26 -10 36 -52 15 -65 -5 -3 -10 -19 -10 -35 0 -16 5 -32 10 -35 6 -3 10 -22 10 -41 0 -28 -4 -34 -20 -34 -12 0 -24 10 -30 23 -9 22 -9 22 -9 -4 -1 -14 9 -41 22 -60 27 -41 65 -46 83 -12 13 28 24 19 24 -18 0 -27 23 -49 49 -49 7 0 11 44 11 129 0 72 4 132 9 135 5 4 17 3 26 0 14 -6 16 -25 15 -138 -1 -72 -1 -136 -1 -142 1 -9 42 -34 57 -34 2 0 4 59 2 130 -1 85 2 134 10 142 8 8 29 2 79 -21 37 -18 71 -37 75 -44 14 -22 8 -61 -13 -83 -13 -14 -23 -41 -26 -68 -7 -62 -20 -58 -28 8 -8 61 -3 76 26 76 13 0 19 7 19 23 0 39 -81 65 -94 31 -12 -32 -5 -98 16 -156 20 -56 23 -59 48 -55 19 4 29 0 38 -14 20 -31 51 -24 68 16 25 61 46 36 33 -39 -10 -55 2 -75 45 -76 6 0 10 56 10 128 1 123 2 127 23 130 30 4 37 -37 31 -179 -5 -113 -2 -124 36 -131 18 -3 19 4 17 123 -2 85 1 129 9 134 12 8 152 -58 170 -80 14 -17 4 -37 -18 -34 -34 3 -41 -2 -47 -30 l-6 -30 -21 21 c-20 20 -22 20 -35 3 -20 -29 -16 -58 17 -106 16 -24 30 -54 30 -66 0 -25 35 -53 66 -53 17 0 25 -9 34 -35 8 -23 18 -35 30 -35 17 0 18 9 16 96 -2 101 -8 114 -52 114 -27 0 -37 23 -19 46 11 15 17 16 38 7 30 -14 37 -9 37 29 0 18 5 28 15 28 13 0 15 -23 15 -145 0 -132 2 -145 19 -155 39 -20 41 -14 41 118 0 71 3 131 6 135 10 9 75 -35 86 -59 16 -35 2 -74 -27 -74 -30 0 -40 -16 -28 -43 6 -12 15 -44 22 -70 15 -64 38 -97 67 -97 29 0 31 21 4 45 -25 23 -26 68 -1 103 14 19 21 48 23 96 3 68 3 68 -29 85 -17 10 -43 25 -56 34 -42 28 -95 56 -237 129 -74 38 -140 75 -147 81 -6 7 -23 50 -39 97 -31 96 -39 110 -65 110 -24 0 -24 -4 0 -54 11 -23 22 -56 26 -74 7 -32 6 -33 -22 -26 -15 4 -94 38 -175 76 -80 37 -149 68 -152 68 -3 0 -30 11 -61 25 -30 14 -69 28 -86 32 l-32 6 6 -69 c3 -39 1 -77 -5 -88 -17 -32 -28 3 -22 69 6 56 4 63 -21 93 -25 30 -53 40 -68 25z"/>
<path d="M3695 6917 c-16 -7 -34 -17 -38 -24 -11 -17 -32 -16 -47 2 -14 17 -30 11 -30 -11 0 -10 12 -14 38 -14 21 0 43 -5 49 -11 6 -6 23 -9 39 -7 19 2 36 -5 56 -24 15 -14 28 -30 28 -36 0 -22 -76 -30 -111 -12 -14 8 -25 7 -41 -2 -13 -7 -61 -14 -108 -15 -47 -1 -100 -3 -119 -3 -51 -2 -111 -39 -123 -75 -2 -5 -9 -9 -15 -9 -7 1 -13 -5 -13 -13 0 -8 -4 -11 -10 -8 -6 4 -10 -7 -10 -25 0 -17 -6 -38 -14 -46 -10 -9 -13 -26 -9 -48 3 -22 -1 -46 -11 -67 -27 -54 -8 -123 51 -188 18 -20 33 -42 33 -48 0 -7 9 -13 21 -13 28 0 59 -18 59 -35 0 -7 6 -15 12 -17 8 -3 12 -19 10 -41 -3 -29 1 -38 15 -43 10 -3 27 -10 38 -14 66 -27 125 -39 147 -31 20 9 19 10 -14 10 -21 1 -38 4 -38 9 0 4 -10 12 -22 17 -11 6 -29 26 -39 45 -11 19 -32 45 -49 58 -16 13 -35 40 -41 61 -9 29 -22 44 -51 61 -61 34 -98 92 -98 155 0 28 5 56 11 62 13 13 28 39 59 99 13 25 41 55 71 75 27 19 49 37 49 42 0 4 20 7 44 7 46 0 96 -29 96 -56 0 -9 11 -14 36 -14 24 0 34 -4 31 -12 -2 -7 -17 -13 -33 -12 -16 0 -33 -5 -37 -13 -4 -7 -14 -13 -21 -13 -23 0 -48 -37 -41 -59 3 -12 12 -21 19 -21 21 0 47 -35 40 -54 -3 -9 -17 -19 -30 -22 -13 -3 -28 -12 -35 -20 -6 -8 -22 -14 -35 -14 -32 0 -38 -16 -17 -45 11 -15 28 -24 45 -25 54 0 73 -47 41 -101 -9 -15 -14 -31 -11 -34 3 -4 28 1 55 10 26 10 66 17 88 16 36 -1 38 0 20 12 -11 8 -32 17 -46 20 -33 8 -79 44 -79 62 0 8 14 30 30 48 17 20 30 46 30 61 l0 27 46 -38 c55 -46 75 -88 64 -136 -4 -19 -10 -39 -14 -45 -3 -6 -2 -13 4 -17 17 -11 11 -49 -17 -104 -24 -49 -25 -55 -10 -66 15 -10 15 -14 2 -31 -8 -11 -15 -14 -15 -6 0 16 -30 16 -30 -1 0 -7 5 -18 12 -25 8 -8 8 -15 0 -24 -15 -18 0 -40 21 -32 9 3 17 10 17 15 0 19 76 -45 94 -79 21 -43 35 -182 18 -182 -6 0 -14 5 -17 10 -13 21 -27 9 -22 -17 17 -79 19 -94 13 -109 -6 -16 -8 -15 -22 2 -14 18 -14 16 -9 -23 11 -72 -16 -57 -121 65 -20 23 -39 41 -41 38 -2 -2 -38 14 -78 35 -102 52 -109 48 -100 -58 6 -70 5 -82 -8 -78 -12 5 -46 69 -61 118 -7 23 -26 22 -26 -2 0 -32 -11 -50 -26 -44 -8 3 -17 -3 -21 -13 -4 -10 -16 -29 -27 -42 -12 -13 -24 -35 -27 -50 l-6 -27 -16 37 c-10 21 -26 42 -37 48 -11 6 -20 16 -20 22 0 5 -13 26 -30 45 -16 18 -30 44 -30 57 0 45 -13 86 -26 86 -8 0 -14 10 -14 25 0 18 -4 23 -15 19 -9 -4 -15 0 -15 10 0 9 5 16 11 16 5 0 7 5 4 10 -10 17 -35 11 -69 -15 -18 -14 -39 -25 -46 -25 -10 0 -11 -3 -3 -11 8 -8 17 -8 31 0 31 17 35 14 30 -26 -4 -31 0 -41 19 -56 16 -13 23 -29 23 -53 0 -27 4 -34 20 -34 16 0 20 -7 20 -32 0 -31 7 -57 38 -147 l15 -45 23 27 c26 31 38 22 49 -38 10 -55 13 -58 42 -39 21 13 27 14 34 3 9 -13 8 -24 -6 -74 -5 -17 -1 -20 27 -20 25 0 35 -6 43 -22 14 -32 21 -29 50 17 14 22 29 40 33 40 4 0 21 -9 37 -20 17 -11 38 -20 48 -20 32 0 76 -40 98 -88 12 -25 27 -52 35 -59 12 -12 14 -11 14 12 0 33 24 29 28 -6 2 -13 14 -33 25 -45 31 -31 116 -154 154 -222 17 -31 38 -60 45 -64 7 -3 34 -16 60 -29 26 -13 50 -21 53 -17 10 10 -14 48 -29 48 -8 0 -17 7 -20 16 -3 9 -12 14 -20 11 -19 -7 -56 35 -105 120 -46 80 -53 110 -22 93 11 -5 22 -20 24 -32 2 -13 5 -3 6 21 1 38 3 43 21 38 17 -4 19 -1 14 19 -14 55 25 68 46 16 10 -25 10 -25 6 9 -5 43 14 76 47 81 12 2 26 13 32 25 5 12 20 23 33 26 21 4 23 2 17 -20 -5 -21 -3 -24 15 -18 18 6 20 4 14 -19 -4 -19 -2 -28 10 -32 10 -4 16 -18 16 -39 0 -19 6 -40 13 -47 7 -7 21 -25 31 -40 10 -16 24 -28 32 -28 7 0 21 -11 29 -24 11 -17 27 -25 56 -28 50 -5 46 9 -12 42 -103 58 -114 76 -122 197 -6 79 -17 146 -34 203 -3 8 -6 47 -8 85 -2 39 -4 76 -6 84 -7 25 17 22 44 -5 l27 -27 0 36 c0 20 -4 39 -10 42 -5 3 -10 13 -10 21 0 8 5 14 10 14 6 0 10 -4 10 -10 0 -5 9 -19 20 -30 18 -18 20 -18 20 -2 0 9 -10 33 -22 52 -67 110 -68 129 -4 59 51 -54 61 -43 59 63 -2 105 -24 221 -51 275 -12 23 -22 50 -22 60 -1 10 -7 29 -15 43 -9 18 -10 29 -3 38 8 9 5 19 -11 35 -11 13 -21 28 -21 34 0 6 -25 60 -55 119 -30 60 -55 115 -55 122 0 26 -51 112 -66 112 -9 0 -18 9 -21 19 -3 11 -11 22 -19 25 -17 6 -19 36 -3 36 8 0 8 4 -1 15 -6 8 -13 44 -13 81 -2 60 -4 68 -32 90 -33 26 -87 30 -140 11z"/>
<path d="M7105 6918 c-39 -21 -53 -48 -47 -94 2 -23 0 -56 -6 -72 -7 -20 -7 -33 0 -40 11 -11 -37 -72 -57 -72 -14 0 -55 -71 -55 -94 0 -15 -57 -138 -102 -220 -9 -17 -17 -38 -18 -47 0 -9 -9 -24 -20 -34 -15 -14 -17 -20 -8 -26 13 -8 -2 -62 -47 -164 -12 -27 -23 -57 -23 -65 -1 -8 -6 -40 -13 -70 -13 -66 -13 -67 -11 -152 2 -83 15 -87 68 -22 42 51 57 46 25 -7 -30 -50 -61 -112 -61 -121 0 -15 39 16 45 37 6 17 8 18 12 3 2 -9 -1 -26 -6 -37 -6 -11 -11 -30 -11 -42 0 -23 0 -23 28 4 15 15 33 27 39 27 19 0 0 -194 -28 -286 -5 -17 -9 -63 -9 -103 0 -93 -22 -137 -88 -180 -27 -17 -54 -31 -59 -31 -6 0 -13 -7 -17 -15 -4 -12 3 -15 30 -15 21 0 37 6 40 14 3 8 15 17 27 20 30 7 85 95 103 164 8 31 19 59 24 60 6 2 10 12 10 23 0 10 6 19 13 19 16 0 47 -32 47 -48 0 -7 6 -12 13 -12 7 0 25 -6 40 -12 25 -12 27 -17 22 -58 -4 -32 -3 -39 4 -25 5 12 16 27 26 35 14 12 18 12 26 -1 12 -19 11 -36 -1 -44 -19 -12 -10 -22 16 -17 25 5 26 3 19 -29 l-7 -34 21 23 c39 40 58 17 23 -29 -10 -13 -24 -37 -32 -54 -8 -16 -17 -32 -20 -35 -3 -3 -12 -18 -21 -34 -10 -17 -39 -41 -67 -55 -45 -23 -87 -71 -62 -71 33 0 145 77 158 109 18 42 78 131 89 131 7 0 13 9 13 20 0 11 6 20 13 20 6 0 18 15 25 33 7 17 18 39 23 47 5 8 14 27 20 43 6 15 17 27 25 27 18 0 18 -19 0 -39 -7 -9 -16 -29 -20 -46 l-6 -30 20 25 c33 41 34 43 58 96 24 50 72 92 100 86 8 -2 28 8 47 22 36 28 40 26 69 -31 20 -40 29 -41 44 -8 9 19 19 25 43 25 30 0 31 1 25 35 -4 20 -4 45 -1 56 7 21 7 21 30 -1 22 -21 52 -20 39 1 -3 6 -1 22 4 37 6 15 13 36 17 47 6 19 8 19 31 -8 l24 -28 14 33 c24 59 46 135 46 161 0 17 7 26 21 30 17 5 20 11 15 31 -7 29 11 66 32 66 10 0 12 10 7 38 l-6 38 38 -3 c21 -2 31 0 23 4 -8 3 -25 17 -38 31 -20 21 -27 23 -48 13 -13 -6 -24 -19 -24 -30 0 -11 -9 -26 -21 -34 -11 -8 -22 -26 -25 -38 -2 -13 -7 -41 -10 -62 -4 -21 -17 -50 -30 -64 -13 -14 -26 -34 -29 -44 -4 -11 -13 -19 -21 -19 -8 0 -20 -13 -25 -30 -14 -40 -32 -38 -48 6 -8 21 -25 43 -42 53 -21 11 -33 29 -42 60 l-13 44 -13 -34 c-28 -77 -52 -119 -65 -119 -15 0 -15 39 0 133 5 30 3 37 -10 37 -9 0 -16 -5 -16 -11 0 -6 -7 -9 -15 -6 -8 4 -38 -7 -67 -23 -29 -16 -64 -34 -78 -40 -27 -12 -44 -29 -78 -76 -12 -18 -38 -41 -58 -53 l-35 -21 6 47 c6 46 5 47 -11 28 -15 -19 -16 -16 -10 58 7 79 3 90 -21 60 -12 -16 -13 -15 -8 15 4 18 2 32 -3 32 -15 0 -12 77 4 91 8 6 14 21 14 33 0 23 47 76 68 76 7 0 12 5 12 10 0 18 20 11 21 -7 1 -10 4 -4 8 12 5 23 12 31 34 33 15 2 27 9 27 18 0 8 -3 13 -7 13 -5 -1 -21 -1 -37 0 -27 1 -28 3 -21 37 4 26 2 41 -9 53 -20 22 -36 97 -24 109 6 6 4 27 -6 56 -15 43 -15 49 0 79 16 31 81 96 97 97 4 0 7 -9 7 -20 0 -11 14 -34 30 -52 51 -53 32 -98 -48 -114 -17 -4 -37 -13 -43 -20 -9 -12 -4 -14 30 -14 23 0 58 -7 78 -15 52 -22 66 -20 52 6 -26 50 -29 79 -8 100 10 10 27 19 37 19 27 0 62 29 62 51 0 15 -7 19 -35 19 -19 0 -35 -4 -35 -9 0 -5 -8 -12 -17 -15 -14 -6 -14 -4 2 14 19 22 19 22 0 36 -10 8 -22 14 -26 14 -4 0 -11 9 -14 20 -8 25 10 50 36 50 14 0 19 7 19 28 0 32 -16 52 -42 52 -10 0 -21 7 -24 15 -4 8 -10 12 -15 9 -5 -3 -25 -2 -45 2 l-37 7 33 13 c21 9 37 11 44 5 8 -7 16 -1 25 20 25 56 111 67 160 22 16 -16 42 -36 56 -47 15 -10 34 -34 42 -53 8 -20 25 -53 39 -74 17 -28 24 -53 24 -91 0 -63 -23 -101 -89 -143 -34 -23 -47 -37 -49 -59 -4 -30 -33 -65 -70 -85 -12 -6 -22 -20 -22 -31 0 -25 -56 -80 -83 -81 l-22 0 21 -9 c28 -11 155 34 172 61 10 16 10 19 -3 19 -19 0 -19 24 0 40 9 8 13 21 9 32 -5 16 -2 19 14 14 13 -4 22 -1 26 9 3 8 12 15 19 15 8 0 26 14 40 30 15 17 32 30 37 30 6 0 10 6 10 14 0 7 9 25 20 38 24 32 27 91 6 145 -9 24 -19 68 -22 99 -4 32 -13 58 -20 61 -8 3 -14 11 -14 19 0 8 -5 14 -11 14 -6 0 -20 11 -31 25 -11 14 -32 31 -46 39 -35 17 -160 28 -198 17 -20 -6 -37 -5 -50 3 -10 6 -55 11 -99 11 -63 0 -80 3 -83 15 -5 29 36 60 78 60 21 0 42 5 46 11 4 7 21 9 40 6 19 -3 34 -2 34 3 0 5 3 15 6 24 4 11 1 16 -10 16 -9 0 -16 -4 -16 -9 0 -16 -33 -22 -49 -8 -43 35 -125 48 -166 25z"/>
<path d="M5465 6773 c-11 -3 -24 -9 -30 -13 -5 -4 -19 -4 -30 1 -33 13 -65 10 -65 -6 0 -8 -6 -16 -12 -16 -7 -1 -20 -3 -28 -4 -8 -1 -24 -3 -35 -4 -13 0 -25 -12 -31 -29 -7 -18 -18 -28 -33 -29 -31 -2 -60 -30 -55 -51 3 -11 -8 -24 -29 -37 -23 -15 -32 -28 -32 -47 0 -14 -11 -38 -24 -52 -20 -21 -23 -32 -17 -65 4 -29 2 -40 -9 -45 -17 -6 -21 -81 -5 -91 8 -5 7 -11 -1 -21 -7 -8 -9 -27 -5 -46 4 -18 9 -48 13 -66 3 -18 9 -35 14 -38 5 -3 9 -16 9 -29 0 -12 7 -25 15 -29 8 -3 15 -10 15 -16 0 -6 14 -32 32 -58 104 -150 287 -221 445 -171 133 42 238 132 290 249 50 113 69 291 31 298 -11 2 -23 -8 -32 -26 -15 -28 -19 -30 -71 -28 -30 1 -58 5 -61 9 -22 21 66 57 140 57 31 0 36 3 36 24 0 14 -5 37 -10 51 -14 38 -51 31 -62 -11 -7 -27 -14 -33 -45 -39 -21 -3 -48 -9 -60 -12 -28 -6 -31 16 -5 37 34 30 90 60 110 60 42 0 36 66 -8 90 -32 17 -40 11 -40 -30 0 -37 -3 -42 -61 -79 -58 -38 -94 -46 -69 -16 8 10 8 15 0 20 -17 10 -32 -9 -32 -39 0 -15 -6 -26 -14 -26 -8 0 -14 5 -14 10 0 6 -9 10 -19 10 -12 0 -23 11 -30 30 -13 39 -24 38 -45 -7 -17 -35 -17 -38 0 -50 10 -7 21 -13 26 -13 24 0 -5 -89 -37 -112 -20 -15 -64 -8 -75 11 -15 30 -12 97 5 111 14 12 13 15 -5 35 -11 12 -20 26 -20 32 0 6 -7 13 -15 17 -9 3 -15 0 -15 -9 0 -8 -6 -15 -12 -14 -15 0 -115 119 -119 140 -1 8 6 29 17 46 14 24 26 33 47 33 16 0 36 10 49 25 22 25 62 33 73 15 4 -6 16 -3 32 10 31 24 46 25 63 5 16 -19 40 -19 69 1 30 21 10 36 -36 28 -25 -5 -34 -2 -39 10 -3 9 -9 15 -13 15 -3 -1 -15 -4 -26 -6z m31 -624 c-4 -23 -2 -46 3 -53 5 -6 11 -27 14 -46 3 -30 4 -28 5 13 1 26 6 47 10 47 12 0 52 -57 52 -75 0 -8 4 -15 9 -15 5 0 11 -10 14 -22 4 -12 9 -20 11 -17 3 3 -4 29 -15 58 -33 89 -20 94 49 22 56 -58 78 -101 52 -101 -5 0 -10 -8 -10 -19 0 -14 -12 -22 -44 -30 -25 -6 -48 -16 -51 -22 -13 -19 -56 -30 -72 -18 -10 9 -20 9 -36 1 -42 -20 -60 -22 -73 -11 -13 10 -27 14 -84 22 -8 1 -27 13 -42 26 l-27 24 47 68 c70 102 84 94 52 -30 -6 -24 -8 -46 -6 -49 3 -3 7 1 10 9 2 8 8 23 12 34 4 11 15 40 24 64 19 54 34 61 49 24 9 -24 10 -17 10 47 -1 95 -3 90 22 90 20 0 21 -4 15 -41z"/>
<path d="M8230 5225 c0 -14 12 -19 33 -16 4 1 12 -11 18 -26 6 -15 18 -43 26 -62 12 -24 17 -64 17 -133 l1 -100 -30 6 c-16 2 -24 2 -17 -1 6 -2 12 -16 12 -31 0 -46 63 -202 82 -202 4 0 8 -19 10 -42 3 -34 6 -39 12 -24 6 13 1 44 -17 100 l-26 81 14 145 c17 176 11 204 -56 272 -47 48 -79 61 -79 33z"/>
<path d="M2860 5092 c-42 -20 -100 -63 -100 -73 0 -4 16 -2 35 4 32 9 38 8 82 -27 26 -20 65 -60 86 -89 33 -46 35 -53 21 -64 -25 -19 -54 -80 -61 -131 -3 -26 -10 -52 -14 -58 -9 -11 14 -68 32 -79 5 -4 9 -16 9 -28 0 -13 14 -37 30 -55 17 -18 30 -37 30 -41 0 -16 29 -33 42 -25 7 5 23 7 36 5 37 -4 25 22 -21 48 -78 45 -117 112 -117 206 1 55 24 94 93 155 36 31 70 93 96 173 7 20 20 45 29 54 15 15 13 16 -33 10 -32 -4 -74 -1 -115 9 -101 24 -122 25 -160 6z"/>
<path d="M7940 5093 c-20 -9 -65 -15 -106 -16 l-72 0 16 -46 c35 -103 67 -157 129 -217 l63 -61 0 -75 c0 -67 -3 -80 -31 -121 -35 -54 -77 -87 -109 -87 -15 0 -20 -5 -18 -17 2 -14 13 -18 42 -18 43 0 46 2 62 30 7 11 19 19 27 19 9 -1 13 4 10 12 -3 7 4 26 15 41 10 15 22 40 26 56 3 15 13 27 21 27 20 0 19 29 0 36 -10 4 -15 20 -15 48 0 39 -9 62 -56 145 -14 25 -16 35 -6 38 6 3 12 11 12 18 0 7 15 23 33 34 18 11 45 34 60 50 35 39 70 48 103 26 14 -9 27 -15 29 -13 10 10 -45 58 -92 82 -59 29 -92 31 -143 9z"/>
<path d="M2582 4915 c-21 -9 -23 -14 -16 -60 10 -74 7 -106 -16 -159 -11 -26 -20 -68 -20 -92 0 -24 -3 -44 -8 -44 -4 0 -12 -9 -17 -19 -6 -11 -23 -36 -39 -56 -28 -35 -59 -119 -58 -159 1 -11 -4 -29 -10 -40 -6 -12 -13 -72 -15 -134 -2 -91 0 -117 13 -137 22 -34 38 -32 31 3 -5 26 -4 28 21 25 52 -7 57 9 20 68 -54 87 -61 105 -53 136 4 15 9 48 11 73 3 25 9 54 14 65 4 11 11 28 14 38 9 29 39 16 61 -28 21 -41 63 -118 104 -190 13 -22 45 -74 72 -116 27 -42 49 -80 49 -86 0 -30 -103 -70 -112 -43 -2 5 -9 6 -17 1 -12 -8 -12 -13 2 -35 10 -15 13 -27 7 -31 -6 -3 -10 -16 -10 -27 l0 -21 -23 21 c-29 27 -37 28 -37 2 0 -11 6 -20 14 -20 29 0 26 -20 -6 -40 -42 -25 -58 -25 -58 0 0 11 -7 23 -15 27 -25 9 -29 -4 -11 -32 21 -32 15 -41 -26 -48 -51 -7 -98 -29 -132 -62 -18 -16 -45 -39 -61 -50 -26 -18 -90 -69 -205 -163 -99 -82 -93 -74 -101 -153 -3 -40 -10 -74 -15 -76 -5 -2 -8 -297 -7 -679 3 -583 5 -678 18 -697 8 -12 15 -16 15 -9 0 6 5 12 10 12 6 0 16 5 23 10 54 46 154 120 160 120 10 0 31 17 59 48 12 12 25 22 29 22 11 0 94 57 109 75 7 8 18 15 26 15 7 0 41 20 76 43 35 24 94 61 132 83 101 58 103 59 119 73 9 7 31 21 49 30 18 10 58 31 88 48 30 17 67 33 81 37 25 5 27 4 32 -42 3 -26 3 -66 1 -90 -3 -29 1 -51 11 -65 12 -18 15 -69 15 -308 0 -157 3 -288 6 -292 4 -3 29 11 58 32 382 281 888 533 1306 651 25 7 65 19 90 26 102 31 332 75 550 104 157 21 498 24 685 6 223 -21 308 -36 549 -92 494 -116 999 -353 1477 -693 26 -19 52 -30 58 -27 8 5 11 108 11 337 0 184 4 329 9 329 5 0 10 47 13 104 2 58 7 108 11 112 4 5 63 -20 130 -55 139 -71 126 -64 232 -126 117 -67 286 -170 337 -206 15 -10 32 -19 38 -19 5 0 10 -4 10 -9 0 -8 63 -54 110 -79 28 -15 125 -88 152 -115 10 -9 23 -17 29 -17 7 0 22 -10 34 -22 48 -48 80 -64 102 -50 10 6 13 159 13 685 1 590 -1 680 -15 706 -8 17 -15 52 -15 80 l0 50 -97 84 c-100 85 -193 158 -244 190 -15 10 -30 26 -33 35 -6 19 -79 52 -112 52 -31 0 -48 24 -29 40 19 16 19 40 0 40 -8 0 -17 -11 -21 -25 -3 -14 -11 -25 -18 -25 -23 0 -68 38 -87 75 -18 32 -19 42 -8 62 15 28 5 41 -21 25 -27 -17 -35 -15 -80 14 -44 29 -44 32 5 109 93 146 117 188 160 270 61 118 95 144 95 75 0 -16 5 -32 10 -35 6 -3 10 -22 10 -41 0 -19 4 -34 9 -34 16 0 23 38 12 59 -6 11 -11 28 -11 39 0 11 -16 42 -35 68 -20 27 -42 63 -49 79 l-15 30 -16 -40 c-64 -159 -260 -488 -294 -493 -11 -2 -40 10 -63 26 -24 16 -69 43 -101 61 -32 19 -61 39 -63 46 -3 7 -20 16 -39 19 -30 6 -59 36 -34 36 16 0 31 52 19 64 -13 13 -28 -6 -37 -47 -4 -21 -10 -26 -22 -21 -9 3 -26 9 -38 11 -38 9 -47 29 -23 53 22 22 23 41 2 48 -6 2 -18 -10 -26 -27 -11 -20 -21 -28 -31 -25 -19 8 -19 15 0 40 21 27 19 47 -4 41 -14 -3 -21 2 -26 20 -6 24 -7 25 -20 7 -8 -11 -15 -27 -15 -37 0 -32 -28 -30 -105 7 -41 20 -79 36 -85 36 -6 0 -18 5 -28 10 -9 6 -62 28 -116 50 -89 36 -101 38 -116 25 -24 -22 -50 -19 -50 5 0 11 -5 20 -11 20 -6 0 -13 -9 -16 -20 -3 -12 -14 -20 -26 -20 -11 0 -28 -7 -38 -16 -25 -23 -62 -10 -53 19 10 34 10 39 -3 44 -6 2 -14 -5 -18 -16 -8 -27 -28 -26 -59 2 -18 17 -23 29 -19 51 5 25 3 28 -16 21 -19 -6 -21 -3 -21 39 0 33 -4 46 -14 46 -8 0 -18 -4 -21 -10 -9 -15 -52 -12 -135 11 -86 24 -105 28 -290 64 -157 31 -229 42 -359 55 -85 9 -152 32 -137 47 3 4 23 10 43 14 l38 8 -40 -4 c-22 -3 -51 -6 -65 -9 -86 -14 -246 -23 -380 -21 -169 2 -218 8 -327 36 -40 10 -87 18 -105 18 -37 -2 -45 1 86 -26 42 -9 57 -27 32 -36 -9 -4 -55 -11 -103 -17 -167 -21 -368 -52 -468 -72 -143 -29 -160 -33 -263 -59 -79 -20 -96 -21 -114 -10 -25 16 -37 2 -30 -35 6 -34 -15 -59 -36 -42 -13 11 -14 9 -8 -16 5 -22 2 -34 -15 -52 -27 -29 -45 -30 -59 -4 -17 32 -31 23 -28 -17 3 -32 0 -38 -18 -41 -11 -2 -27 4 -34 13 -7 8 -21 15 -32 15 -11 0 -22 9 -25 20 -3 11 -9 20 -14 20 -5 0 -9 -9 -9 -20 0 -27 -41 -27 -58 1 -9 14 -17 18 -25 11 -7 -5 -45 -22 -86 -37 -41 -15 -128 -52 -194 -81 -66 -30 -122 -54 -123 -54 -2 0 -11 16 -20 35 -19 40 -30 44 -39 15 -4 -11 -11 -17 -17 -14 -19 12 -28 -19 -11 -38 15 -17 12 -48 -4 -48 -4 0 -16 14 -25 30 -9 17 -22 30 -28 30 -15 0 -12 -31 6 -51 21 -24 11 -49 -20 -49 -14 0 -28 -5 -31 -11 -11 -17 -27 -5 -39 30 -6 18 -15 34 -21 34 -17 3 -17 -39 0 -53 26 -21 17 -38 -24 -45 -22 -4 -42 -12 -44 -20 -3 -7 -29 -26 -59 -42 -97 -54 -133 -75 -142 -84 -23 -21 -52 -7 -80 39 -97 156 -140 229 -190 328 -56 109 -56 110 -46 167 5 32 18 70 28 85 43 63 80 197 57 210 -7 4 -14 14 -16 22 -3 12 -9 13 -27 5z m2073 -319 c28 -29 65 -146 65 -210 0 -54 0 -54 113 -32 138 27 717 40 837 19 43 -8 45 -10 48 -46 2 -22 -3 -46 -12 -59 -13 -18 -16 -55 -16 -203 0 -99 5 -200 11 -224 11 -50 0 -71 -36 -71 -48 0 -55 9 -55 68 0 48 -2 53 -13 38 -9 -12 -23 -17 -42 -14 -48 5 -69 60 -73 190 -4 100 -3 106 17 113 17 5 21 15 21 49 0 50 -18 71 -51 61 -21 -7 -21 -8 -18 -249 l4 -241 -34 -3 c-18 -2 -38 1 -43 6 -6 6 -9 66 -9 136 1 81 -2 126 -9 126 -5 0 -10 -7 -10 -15 0 -8 -4 -15 -10 -15 -12 0 -24 45 -17 69 2 10 1 25 -4 32 -13 22 -29 -35 -29 -105 0 -35 7 -83 15 -106 21 -61 20 -120 -2 -120 -24 0 -38 10 -53 40 -18 33 -39 134 -40 185 0 54 28 185 46 213 18 28 57 29 84 2 27 -27 32 -25 28 13 l-3 32 -65 3 c-35 2 -75 0 -88 -3 l-23 -6 2 -238 c1 -131 -1 -243 -5 -249 -10 -16 -71 -15 -85 1 -7 9 -8 24 -1 48 6 18 10 120 10 225 0 153 -3 194 -14 203 -11 9 -16 9 -21 1 -4 -7 -6 -118 -4 -248 l4 -237 -43 -3 c-30 -2 -44 1 -48 11 -5 13 -9 13 -34 0 -27 -13 -32 -12 -54 4 -37 28 -45 67 -45 230 1 145 2 154 25 189 13 19 22 40 19 45 -6 9 -54 2 -68 -10 -9 -9 -11 -359 -2 -428 7 -45 5 -52 -13 -62 -47 -25 -82 -9 -82 38 0 13 -7 16 -34 13 -28 -3 -37 1 -51 21 -28 43 -40 138 -28 228 13 99 35 134 84 135 27 0 34 4 34 20 0 16 -7 19 -45 18 -69 -1 -97 -11 -103 -36 -2 -13 -3 -123 -2 -246 l3 -223 -25 -10 c-14 -5 -33 -7 -42 -4 -15 4 -16 29 -13 240 4 213 3 238 -13 255 -13 14 -16 28 -11 57 4 21 11 81 16 133 10 108 35 177 75 208 35 28 50 28 80 -2z m1954 -86 c39 -69 71 -231 51 -255 -14 -17 -10 -19 80 -40 138 -31 292 -80 300 -95 4 -8 4 -35 -2 -60 -12 -56 -29 -212 -29 -265 0 -22 3 -80 6 -130 6 -84 5 -92 -17 -125 -27 -41 -54 -48 -97 -25 -62 31 -94 147 -71 253 10 50 10 64 -4 96 -11 26 -16 69 -16 132 0 75 -3 94 -14 94 -8 0 -17 -8 -20 -17 -8 -24 0 -404 8 -424 4 -10 0 -23 -9 -33 -14 -13 -20 -14 -48 -2 l-32 13 3 84 2 84 -20 -37 c-34 -64 -69 -69 -96 -16 -20 39 -45 188 -34 208 4 8 10 32 14 53 11 59 36 78 92 70 44 -6 46 -5 42 18 -2 20 -15 28 -71 46 -37 12 -75 19 -84 16 -14 -5 -15 -34 -11 -245 l4 -238 -24 0 c-50 0 -62 16 -62 83 l0 62 -19 -40 c-19 -42 -82 -85 -124 -85 -28 0 -57 28 -57 56 0 17 -6 23 -27 26 -43 5 -57 46 -60 168 -3 92 0 111 19 150 19 38 28 46 56 48 53 5 40 58 -16 68 -62 11 -83 29 -79 72 2 35 4 37 37 36 19 0 67 -7 105 -14 39 -7 90 -13 115 -14 l45 -1 5 90 c7 114 32 166 85 177 35 7 52 -3 74 -42z m-660 -154 c56 -8 97 -19 102 -27 14 -22 11 -62 -7 -87 -14 -20 -16 -55 -13 -258 4 -257 4 -257 -55 -235 -25 10 -30 22 -26 69 1 21 -1 21 -25 10 -23 -10 -29 -9 -51 14 -48 47 -63 193 -33 310 16 63 59 87 93 52 15 -14 16 -13 16 14 0 28 -3 30 -52 36 -75 10 -88 20 -88 65 0 58 -4 57 139 37z m-2260 -95 c7 -33 19 -72 27 -87 8 -14 14 -42 14 -60 0 -29 3 -33 18 -25 51 26 113 47 237 82 241 66 381 102 410 103 28 1 30 -2 33 -37 2 -21 -2 -45 -9 -53 -7 -8 -12 -53 -13 -112 -2 -85 -6 -106 -29 -154 -32 -65 -29 -99 10 -137 20 -19 24 -30 19 -55 -14 -70 -81 -87 -105 -27 -14 33 -30 121 -38 202 -4 54 -4 56 31 83 34 26 36 30 36 85 0 80 -8 85 -104 61 -43 -11 -80 -20 -82 -20 -2 0 -4 -18 -4 -40 0 -37 2 -40 23 -35 12 3 29 0 38 -7 23 -18 49 -91 49 -136 0 -54 -19 -152 -36 -185 -25 -46 -89 -107 -123 -113 -26 -6 -32 -3 -40 17 -6 18 -16 24 -37 24 -23 0 -32 7 -45 35 -19 38 -22 35 -38 -38 -5 -23 -16 -54 -26 -68 -50 -77 -156 -27 -140 66 8 45 14 48 39 21 21 -23 44 -17 56 13 9 23 -6 60 -20 51 -21 -13 -48 16 -60 66 -20 82 17 209 60 209 6 0 10 7 10 15 0 19 -9 19 -52 1 -61 -26 -60 -23 -58 -278 1 -128 2 -238 1 -243 0 -6 -17 -17 -37 -24 -40 -14 -54 -6 -54 32 0 16 -2 16 -22 -3 -92 -86 -145 178 -72 356 17 41 37 56 71 52 22 -2 28 1 28 17 0 14 -6 19 -20 17 -11 -2 -21 -8 -23 -13 -2 -5 -13 -9 -25 -9 -12 0 -37 -9 -54 -20 -38 -23 -36 1 -35 -296 l0 -222 -39 -18 c-54 -24 -68 -11 -51 51 7 28 12 117 12 230 0 151 -3 185 -14 185 -21 0 -23 -27 -21 -267 2 -243 2 -243 -57 -258 -21 -5 -27 -3 -33 15 -7 22 -8 22 -22 -8 -8 -16 -24 -39 -37 -51 -20 -19 -24 -19 -44 -5 -28 20 -54 106 -42 139 12 32 26 32 34 -1 6 -22 9 -24 22 -13 12 10 14 25 9 68 -8 75 -8 176 0 229 7 44 7 44 -21 40 -25 -2 -29 1 -32 22 -3 35 38 104 65 108 12 2 31 -6 42 -17 23 -23 31 -18 31 24 0 35 15 51 70 76 19 9 73 34 120 56 47 22 102 46 123 53 37 12 39 14 34 49 -12 78 -21 107 -38 130 -11 14 -19 40 -19 62 0 32 5 41 27 53 40 21 57 6 72 -63z m4141 -194 c42 -34 89 -167 95 -274 4 -64 10 -71 85 -109 83 -42 320 -181 460 -271 69 -43 132 -82 140 -85 14 -6 192 -134 267 -193 42 -33 50 -66 28 -115 -15 -33 -17 -66 -14 -259 5 -246 3 -252 -56 -200 -37 32 -43 58 -25 103 9 24 8 26 -20 26 -57 0 -96 78 -113 229 l-11 103 28 23 c26 20 28 28 23 62 -6 35 -36 73 -59 73 -6 0 -9 -87 -7 -230 1 -126 -1 -233 -5 -237 -11 -11 -76 28 -77 46 -1 9 0 77 0 151 1 100 -1 130 -9 118 -6 -10 -15 -18 -19 -18 -16 0 -30 50 -24 86 5 29 3 36 -8 32 -21 -7 -24 -160 -4 -210 17 -44 20 -104 4 -113 -19 -12 -48 26 -70 94 -27 80 -33 250 -10 318 23 69 68 67 112 -4 l24 -38 3 35 c2 19 0 36 -5 37 -4 2 -42 25 -83 52 -41 27 -80 46 -87 44 -10 -4 -12 -53 -10 -206 2 -111 6 -211 10 -222 4 -11 3 -27 -2 -35 -9 -12 -15 -11 -48 7 l-38 22 4 229 c4 236 0 272 -25 272 -13 0 -15 -27 -10 -202 2 -112 6 -216 8 -233 2 -22 -2 -30 -14 -33 -25 -5 -76 34 -80 61 -2 17 -9 21 -29 19 -57 -7 -119 124 -104 217 5 25 7 64 5 86 -9 101 -5 133 18 157 12 14 22 30 22 36 0 15 -53 42 -66 34 -14 -10 -17 -353 -4 -401 18 -69 -11 -92 -64 -50 -21 16 -26 29 -26 64 0 42 -1 44 -32 47 -27 2 -37 10 -51 40 -50 102 -43 332 11 353 9 3 28 -3 43 -14 29 -22 39 -19 32 7 -5 21 -120 85 -139 78 -11 -4 -14 -40 -14 -198 0 -107 5 -210 11 -232 14 -52 2 -63 -48 -43 l-38 15 3 236 c2 130 0 245 -3 256 -4 11 -13 20 -21 20 -13 0 -14 -29 -11 -202 2 -112 7 -217 11 -234 7 -26 5 -32 -12 -36 -11 -3 -34 3 -51 13 l-31 18 -2 248 c-3 227 -4 248 -20 251 -15 3 -18 -4 -18 -45 0 -65 -9 -76 -54 -68 -32 6 -36 5 -36 -13 0 -12 14 -28 35 -41 49 -29 75 -88 75 -173 0 -57 -4 -71 -24 -95 -47 -54 -80 2 -56 95 9 38 9 48 -5 61 -14 14 -17 14 -25 1 -20 -31 -4 -180 19 -180 22 0 43 -103 27 -126 -10 -14 -15 -13 -39 6 -59 47 -106 197 -92 293 5 28 9 105 9 170 1 102 4 120 19 132 10 7 27 11 37 8 13 -4 20 0 20 9 0 14 -96 55 -107 45 -3 -3 -5 -109 -4 -236 1 -126 -3 -232 -8 -235 -5 -3 -25 1 -46 10 l-37 15 7 102 c6 93 5 100 -9 83 -9 -11 -16 -32 -16 -46 0 -25 -32 -70 -50 -70 -31 0 -70 104 -70 187 0 44 20 115 37 128 18 15 22 137 4 143 -42 14 -67 82 -40 109 12 12 158 -36 304 -100 301 -131 275 -127 275 -42 0 118 63 198 120 152z m-4782 -90 c3 -29 -3 -45 -22 -68 -22 -26 -26 -40 -26 -100 0 -62 2 -69 20 -69 28 0 36 -42 16 -93 -9 -24 -16 -68 -16 -98 0 -59 -8 -75 -52 -102 -37 -23 -35 -38 4 -35 42 4 58 -26 58 -109 0 -63 -31 -170 -54 -185 -6 -5 -2 -8 11 -8 29 0 37 -30 19 -73 -16 -39 -46 -60 -70 -51 -25 10 -76 129 -76 178 0 46 12 61 40 46 18 -10 24 -9 36 7 7 10 14 30 14 45 0 25 -2 27 -30 22 -27 -6 -31 -3 -46 32 -23 53 -5 166 31 204 25 26 33 50 17 50 -5 0 -26 -15 -47 -33 l-39 -33 -3 -170 c-2 -95 2 -199 8 -239 l12 -69 -34 -28 c-64 -54 -64 -55 -64 205 0 200 -2 232 -15 232 -13 0 -15 -28 -14 -200 0 -110 4 -215 9 -233 7 -29 4 -36 -29 -67 -43 -40 -61 -44 -69 -15 -5 19 -7 18 -36 -10 -25 -26 -34 -29 -50 -21 -60 33 -48 339 17 414 29 33 -11 19 -52 -18 l-38 -35 3 -241 4 -241 -30 -24 c-16 -13 -38 -24 -49 -24 -16 0 -17 5 -11 33 12 49 17 427 7 427 -31 0 -34 -32 -31 -271 l4 -241 -28 -24 c-15 -13 -34 -24 -42 -24 -18 0 -30 39 -16 53 14 14 15 161 1 152 -5 -3 -10 -27 -10 -52 0 -55 -25 -145 -49 -174 -25 -31 -58 -18 -67 27 -12 66 1 196 24 241 22 43 30 127 13 137 -5 3 -20 -4 -35 -15 -24 -19 -26 -26 -26 -107 -1 -94 -11 -156 -36 -214 -21 -47 -12 -108 16 -108 35 0 29 -64 -12 -122 -41 -59 -75 -25 -97 98 -17 92 -14 129 12 161 33 40 49 85 45 129 -3 40 -12 45 -58 33 -11 -3 -16 6 -18 35 -3 36 1 43 65 105 77 73 110 103 198 176 33 27 85 74 115 103 30 30 75 68 100 85 25 17 86 63 135 101 50 39 110 81 135 94 25 13 68 41 95 61 28 21 65 46 83 57 26 15 32 23 26 39 -16 47 -16 149 2 203 31 99 96 136 102 59z m2713 -437 c410 -54 744 -153 1114 -331 231 -111 561 -315 735 -456 l85 -68 3 -419 c1 -256 -1 -423 -7 -429 -6 -6 -55 19 -133 70 -526 341 -1050 552 -1583 637 -55 9 -113 19 -130 22 -65 11 -386 33 -492 34 -214 0 -529 -38 -808 -99 -253 -55 -605 -182 -873 -315 -130 -64 -380 -208 -499 -288 -56 -37 -107 -68 -113 -68 -7 0 -10 141 -10 429 l0 430 113 83 c254 189 412 288 647 407 306 153 627 265 925 321 33 6 78 16 100 20 22 5 87 14 145 20 58 7 114 13 125 14 11 2 128 4 261 5 189 1 273 -3 395 -19z"/>
<path d="M4599 4493 c-8 -9 -13 -45 -14 -91 l0 -77 50 4 c28 1 52 5 54 7 3 2 -1 28 -8 57 -24 95 -55 133 -82 100z"/>
<path d="M6542 4428 c-11 -14 -15 -48 -13 -115 1 -42 1 -42 53 -58 28 -8 53 -13 55 -12 7 7 -18 111 -36 153 -20 44 -40 55 -59 32z"/>
<path d="M3985 4062 l-50 -17 -3 -68 c-3 -67 -4 -69 -36 -82 -19 -8 -36 -22 -40 -31 -7 -19 12 -47 26 -38 12 7 48 -25 48 -43 0 -7 4 -13 9 -13 4 0 11 29 13 65 7 79 46 166 84 183 18 9 24 19 22 34 -4 29 -14 30 -73 10z"/>
<path d="M5285 3461 c-44 -26 -64 -62 -71 -128 -3 -32 -11 -68 -17 -81 -9 -18 -7 -29 7 -53 15 -26 17 -52 15 -192 l-3 -162 42 -3 42 -3 -3 171 c-1 121 1 174 9 181 7 5 54 8 105 7 86 -3 94 -5 94 -23 0 -17 -8 -20 -53 -23 l-54 -3 6 -47 c3 -26 8 -66 12 -89 5 -35 3 -44 -11 -50 -24 -9 -42 18 -51 73 -3 24 -11 44 -16 44 -17 0 -4 -111 17 -155 17 -34 25 -40 56 -43 49 -4 70 29 77 120 3 38 7 66 10 63 3 -2 6 -51 8 -107 2 -57 3 -106 4 -110 0 -5 18 -8 40 -8 l40 0 0 170 c0 136 3 175 15 194 30 46 15 53 -130 61 -74 4 -139 4 -145 0 -17 -11 -50 25 -50 54 0 35 36 91 57 91 31 -1 83 -60 83 -95 0 -8 7 -15 15 -15 21 0 18 27 -9 86 -24 52 -66 94 -95 94 -9 0 -30 -8 -46 -19z"/>
<path d="M4726 3384 c-30 -31 -50 -96 -42 -133 4 -14 8 -32 9 -40 1 -11 -27 -22 -98 -41 -198 -53 -428 -139 -590 -222 -88 -44 -166 -85 -172 -91 -7 -5 -13 -21 -13 -34 0 -16 4 -23 13 -20 6 3 20 8 29 12 24 9 52 -37 44 -71 -4 -14 -25 -42 -47 -63 l-41 -38 20 -42 c11 -23 23 -55 27 -71 13 -59 57 -64 88 -10 19 32 16 53 -7 44 -8 -3 -18 7 -26 26 -11 28 -10 34 15 69 14 22 33 42 42 45 30 12 36 -5 30 -90 -5 -92 -2 -97 47 -65 l30 20 0 178 c1 171 2 178 21 178 19 0 20 -7 20 -145 -1 -80 -5 -155 -9 -167 -7 -19 -5 -23 10 -23 11 0 32 8 48 18 l29 18 -2 171 c-2 133 0 173 11 179 20 13 141 53 159 54 9 0 19 -6 21 -12 10 -25 -4 -38 -41 -38 -63 0 -101 -60 -101 -158 0 -57 27 -122 51 -122 15 0 53 21 61 34 7 10 8 7 23 -39 3 -12 10 -12 42 -1 l38 13 -3 161 c-1 88 2 171 7 185 7 18 22 27 58 36 26 7 64 16 84 22 74 19 103 3 73 -40 -14 -20 -16 -20 -40 -5 -35 24 -79 3 -106 -49 -24 -48 -30 -166 -10 -213 15 -35 52 -60 76 -51 21 8 20 30 -4 77 -11 22 -20 55 -20 75 0 40 24 105 38 105 14 0 22 -25 15 -49 -7 -29 22 -28 38 0 9 17 13 19 20 8 12 -19 11 -136 0 -158 -17 -31 1 -44 45 -32 l39 10 0 178 0 178 25 0 25 0 3 -134 c1 -76 -2 -148 -8 -165 -14 -41 -1 -52 47 -40 l37 9 -3 176 c-2 150 0 177 13 188 21 17 20 28 -4 58 -11 14 -20 36 -20 49 0 30 -19 73 -44 102 -28 32 -85 30 -120 -4z"/>
<path d="M5876 3215 c-14 -37 34 -65 111 -65 52 0 63 -20 63 -113 0 -96 -17 -135 -51 -117 -27 15 -27 90 1 115 31 28 25 54 -15 71 -19 7 -49 14 -66 14 -30 0 -31 -1 -24 -32 4 -18 8 -65 10 -104 5 -118 55 -186 111 -150 22 15 23 15 26 -22 3 -32 7 -38 33 -42 50 -10 65 -2 54 27 -11 29 -12 310 -1 316 12 8 106 -14 127 -29 17 -13 18 -16 5 -24 -8 -5 -22 -7 -31 -5 -51 16 -87 -93 -55 -169 20 -48 20 -70 1 -86 -17 -14 -20 -46 -5 -55 6 -3 22 3 36 14 15 12 30 21 34 21 9 0 26 -43 35 -88 5 -23 13 -34 30 -38 36 -9 42 1 35 58 -4 29 -5 80 -2 113 4 52 1 63 -17 79 -19 17 -24 18 -47 6 -21 -12 -27 -12 -34 0 -8 14 -4 36 12 56 5 7 24 10 48 7 l40 -6 0 40 c0 46 21 73 44 54 9 -8 15 -46 18 -119 7 -146 38 -202 112 -202 27 0 28 -1 23 -37 -4 -21 -2 -42 5 -50 7 -9 6 -19 -6 -38 -9 -13 -16 -40 -16 -58 0 -34 36 -100 55 -101 6 -1 11 20 13 47 2 26 7 47 12 47 12 0 34 -43 51 -102 7 -26 19 -50 26 -52 18 -7 43 4 43 19 0 24 -40 108 -75 157 -21 29 -30 50 -24 54 6 3 8 22 5 43 -4 20 -7 95 -9 166 l-2 130 25 3 c41 4 88 -32 96 -74 9 -47 -4 -68 -45 -72 -37 -4 -38 -11 -12 -115 22 -89 48 -136 78 -143 53 -14 73 30 28 60 -14 9 -27 30 -31 51 -5 30 -2 39 25 65 28 29 31 37 31 96 0 36 4 64 10 64 6 0 10 13 10 29 0 27 -6 32 -77 61 -43 18 -89 38 -103 46 -31 17 -217 77 -285 92 -27 6 -97 22 -155 36 -58 13 -132 29 -165 36 -33 6 -76 16 -96 21 -50 13 -66 11 -73 -6z m662 -207 c7 -7 12 -35 11 -77 -1 -87 -10 -116 -34 -116 -29 0 -45 42 -45 117 0 84 6 101 34 92 11 -4 27 -11 34 -16z"/>
<path d="M1749 4592 c-38 -25 -79 -77 -79 -101 0 -17 15 -59 39 -109 9 -19 132 -84 148 -78 8 3 13 22 13 48 1 24 7 54 15 68 32 56 5 142 -56 172 -42 21 -47 21 -80 0z"/>
<path d="M9065 4568 c-31 -29 -36 -39 -37 -84 0 -28 5 -60 11 -72 6 -11 11 -34 11 -51 0 -39 9 -61 25 -61 8 0 41 16 74 36 49 29 65 46 81 81 30 68 26 96 -18 143 -51 53 -96 55 -147 8z"/>
<path d="M8511 4255 c3 -34 -4 -52 -44 -113 -26 -40 -47 -76 -47 -81 0 -6 16 -15 35 -22 19 -7 37 -21 41 -31 8 -26 23 -22 35 10 15 39 8 247 -9 264 -12 11 -13 6 -11 -27z"/>
<path d="M2698 3 c1486 -2 3918 -2 5405 0 1486 1 270 2 -2703 2 -2973 0 -4189 -1 -2702 -2z"/>
</g>
</svg>
